<?xml version="1.0" standalone="no"?>
<!DOCTYPE svg PUBLIC "-//W3C//DTD SVG 20010904//EN"
 "http://www.w3.org/TR/2001/REC-SVG-20010904/DTD/svg10.dtd">
<svg version="1.0" xmlns="http://www.w3.org/2000/svg"
 width="1280.000000pt" height="922.000000pt" viewBox="0 0 1280.000000 922.000000"
 preserveAspectRatio="xMidYMid meet">
<metadata>
Created by potrace 1.15, written by Peter Selinger 2001-2017
</metadata>
<g transform="translate(0.000000,922.000000) scale(0.100000,-0.100000)"
fill="#000000" stroke="none">
<path d="M4535 9209 c-271 -35 -505 -157 -614 -321 -64 -95 -85 -177 -79 -309
6 -107 5 -109 -16 -109 -107 0 -220 -92 -286 -232 -79 -170 -106 -338 -97
-617 13 -400 100 -640 313 -861 l91 -95 6 -165 c9 -258 46 -420 138 -602 67
-134 135 -226 248 -338 131 -131 269 -224 419 -283 l42 -17 0 -114 0 -114
-147 -6 c-556 -25 -1036 -88 -1318 -173 l-60 -19 -3 -52 c-3 -48 -13 -68 -126
-240 -637 -972 -1105 -1883 -1285 -2502 -65 -227 -85 -349 -85 -540 -1 -166 1
-179 27 -253 44 -125 106 -205 202 -261 l44 -26 670 0 c590 0 671 -2 671 -15
0 -13 -189 -15 -1645 -15 l-1645 0 0 -465 0 -465 6400 0 6400 0 0 467 0 466
-1801 -7 c-2301 -8 -4429 1 -4422 21 4 11 102 13 534 13 615 0 563 -9 684 114
112 113 169 257 182 459 l6 97 329 0 329 0 -6 -47 c-6 -56 -45 -469 -45 -483
0 -6 -48 -10 -117 -10 -99 0 -123 -3 -150 -20 -30 -18 -53 -66 -53 -112 0 -17
59 -18 1099 -18 l1099 0 4 32 c3 18 1 45 -4 61 -16 46 -53 57 -183 57 -68 0
-115 4 -115 10 0 14 -39 427 -45 483 l-6 47 1098 0 c753 0 1110 3 1137 11 21
6 49 21 62 34 l24 24 -2 2105 -3 2104 -45 88 c-31 61 -55 96 -79 111 l-34 23
-2894 0 c-2516 0 -2898 -2 -2922 -15 -16 -8 -43 -31 -61 -52 -18 -22 -29 -30
-25 -18 26 76 55 217 64 314 7 70 11 295 11 583 -2 395 0 472 13 491 27 42 74
142 95 202 36 107 46 177 46 310 0 160 -22 273 -64 326 l-28 35 20 80 c31 118
30 332 -1 477 -13 59 -26 107 -28 107 -2 0 -21 -13 -41 -30 -86 -68 -206 -97
-333 -80 -112 15 -205 44 -489 150 -135 50 -288 104 -340 119 -261 78 -544
108 -765 80z m1761 -4285 c-3 -8 -45 -2 -133 17 -121 27 -389 71 -515 84 l-58
6 0 113 0 112 68 28 c219 89 437 272 573 478 32 50 60 95 61 102 2 6 4 -200 6
-459 1 -258 0 -475 -2 -481z m-3051 -2615 c8 -261 17 -538 20 -616 4 -94 3
-143 -4 -143 -30 0 -307 63 -368 84 -97 33 -188 83 -219 118 -63 76 7 262 220
581 111 166 327 460 333 453 2 -2 10 -217 18 -477z m3603 -685 c-8 -7 -179
-54 -199 -54 -12 0 -14 7 -11 30 l4 30 106 0 c58 0 103 -3 100 -6z"/>
</g>
</svg>
